<svg width="125" height="111" viewBox="0 0 125 111" fill="none" xmlns="http://www.w3.org/2000/svg">
<path d="M8.93953 57.372L62.3116 4.00009L115.683 57.372M29.6018 57.372L72.14 14.8338" stroke="#FFFBFA" stroke-width="6.5" stroke-linecap="round" stroke-linejoin="round"/>
<path d="M0.736668 87.2875H4.51627C4.66615 88.8987 5.54665 89.7042 7.15778 89.7042C7.93525 89.7042 8.56753 89.4841 9.05461 89.0439C9.55107 88.6036 9.79929 88.0322 9.79929 87.3297C9.79929 86.5054 9.49955 85.845 8.90006 85.3486C8.60031 85.1237 8.2912 84.9411 7.97272 84.8006C7.65424 84.6601 6.83462 84.3416 5.51387 83.8451C4.20248 83.3487 3.19552 82.6508 2.49299 81.7516C1.79983 80.843 1.45325 79.7752 1.45325 78.5481C1.45325 77.0025 2.0059 75.6911 3.11122 74.6139C4.21653 73.5367 5.55602 72.9981 7.12968 72.9981C8.04765 72.9981 8.90474 73.1854 9.70094 73.5601C10.5065 73.9254 11.1716 74.4359 11.6961 75.0916C12.0895 75.5787 12.3752 76.0939 12.5532 76.6372C12.7405 77.1711 12.8576 77.8081 12.9045 78.5481H9.16702C9.11081 77.8924 8.90474 77.3866 8.54879 77.0306C8.19284 76.6653 7.71044 76.4826 7.10158 76.4826C6.50209 76.4826 6.015 76.67 5.64032 77.0447C5.27501 77.41 5.09235 77.883 5.09235 78.4638C5.09235 79.1944 5.45298 79.7845 6.17424 80.2341C6.38969 80.3559 7.11095 80.6463 8.33803 81.1053C9.29347 81.4706 9.98663 81.7703 10.4175 82.0045C10.8578 82.2293 11.2652 82.5197 11.6399 82.8757C12.8014 83.9529 13.3822 85.3064 13.3822 86.9363C13.3822 88.7066 12.7827 90.1913 11.5837 91.3903C10.3941 92.5893 8.91879 93.1888 7.15778 93.1888C6.11804 93.1888 5.14387 92.9827 4.23526 92.5706C3.32666 92.149 2.58198 91.5636 2.00122 90.8142C1.6078 90.299 1.31274 89.7745 1.11603 89.2406C0.928693 88.7066 0.802238 88.0556 0.736668 87.2875ZM15.9113 92.8516V73.3353H19.5223V81.2036H26.4914V73.3353H30.1164V92.8516H26.4914V84.6741H19.5223V92.8516H15.9113ZM32.2521 92.8516L40.3874 73.3353H43.2397L51.4171 92.8516H47.4408L45.3473 87.8074H38.4063L36.2425 92.8516H32.2521ZM39.727 84.351H43.9001L41.8065 78.4357L39.727 84.351ZM51.9651 87.2875H55.7447C55.8946 88.8987 56.7751 89.7042 58.3862 89.7042C59.1637 89.7042 59.7959 89.4841 60.283 89.0439C60.7795 88.6036 61.0277 88.0322 61.0277 87.3297C61.0277 86.5054 60.728 85.845 60.1285 85.3486C59.8287 85.1237 59.5196 84.9411 59.2011 84.8006C58.8827 84.6601 58.063 84.3416 56.7423 83.8451C55.4309 83.3487 54.4239 82.6508 53.7214 81.7516C53.0282 80.843 52.6817 79.7752 52.6817 78.5481C52.6817 77.0025 53.2343 75.6911 54.3396 74.6139C55.4449 73.5367 56.7844 72.9981 58.3581 72.9981C59.2761 72.9981 60.1332 73.1854 60.9294 73.5601C61.7349 73.9254 62.4 74.4359 62.9245 75.0916C63.318 75.5787 63.6036 76.0939 63.7816 76.6372C63.969 77.1711 64.0861 77.8081 64.1329 78.5481H60.3954C60.3392 77.8924 60.1332 77.3866 59.7772 77.0306C59.4213 76.6653 58.9389 76.4826 58.33 76.4826C57.7305 76.4826 57.2434 76.67 56.8687 77.0447C56.5034 77.41 56.3208 77.883 56.3208 78.4638C56.3208 79.1944 56.6814 79.7845 57.4027 80.2341C57.6181 80.3559 58.3394 80.6463 59.5664 81.1053C60.5219 81.4706 61.2151 81.7703 61.6459 82.0045C62.0862 82.2293 62.4937 82.5197 62.8683 82.8757C64.0298 83.9529 64.6106 85.3064 64.6106 86.9363C64.6106 88.7066 64.0111 90.1913 62.8121 91.3903C61.6225 92.5893 60.1472 93.1888 58.3862 93.1888C57.3465 93.1888 56.3723 92.9827 55.4637 92.5706C54.5551 92.149 53.8104 91.5636 53.2296 90.8142C52.8362 90.299 52.5412 89.7745 52.3445 89.2406C52.1571 88.7066 52.0307 88.0556 51.9651 87.2875ZM67.1397 92.8516V73.3353H70.7507V81.2036H77.7198V73.3353H81.3449V92.8516H77.7198V84.6741H70.7507V92.8516H67.1397ZM84.0847 83.1145C84.0847 81.7095 84.3517 80.384 84.8856 79.1382C85.4195 77.883 86.1408 76.8105 87.0494 75.9206C87.9674 75.0214 89.0633 74.3095 90.3372 73.7849C91.6111 73.2604 92.96 72.9981 94.3838 72.9981C95.7514 72.9981 97.0534 73.2651 98.2899 73.799C99.5357 74.3329 100.604 75.0495 101.493 75.9487C102.383 76.848 103.09 77.9205 103.615 79.1663C104.149 80.4121 104.416 81.7188 104.416 83.0864C104.416 84.4915 104.154 85.8216 103.629 87.0768C103.114 88.3226 102.411 89.3951 101.521 90.2944C100.632 91.1842 99.5638 91.8914 98.318 92.416C97.0721 92.9312 95.7514 93.1888 94.3557 93.1888C92.9506 93.1888 91.6111 92.9265 90.3372 92.4019C89.0727 91.8774 87.9814 91.1655 87.0634 90.2663C86.1548 89.367 85.4289 88.2945 84.8856 87.0487C84.3517 85.8029 84.0847 84.4915 84.0847 83.1145ZM87.7379 83.1145C87.7379 84.9598 88.3748 86.5194 89.6487 87.7934C90.9227 89.0673 92.4823 89.7042 94.3276 89.7042C96.1729 89.7042 97.7091 89.0813 98.9362 87.8355C100.163 86.5803 100.777 85.016 100.777 83.1426C100.777 81.2692 100.154 79.6909 98.9081 78.4076C97.6623 77.1243 96.1354 76.4826 94.3276 76.4826C92.4542 76.4826 90.8852 77.1149 89.6206 78.3795C88.3655 79.644 87.7379 81.2224 87.7379 83.1145ZM107.268 92.8516V73.3353H111.385L119.464 87.5404V73.3353H123.075V92.8516H119.043L110.879 78.6745V92.8516H107.268Z" fill="#FFFBFA"/>
<path d="M1.5236 104L3.51182 99.2303H4.2089L6.20742 104H5.23563L4.72398 102.767H3.02764L2.49882 104H1.5236ZM3.35043 101.922H4.37029L3.85864 100.477L3.35043 101.922ZM7.39486 104V99.2303H8.4834C9.23427 99.2303 9.79858 99.3448 10.1763 99.5737C10.5082 99.7729 10.7635 100.052 10.9421 100.412C11.1229 100.769 11.2133 101.174 11.2133 101.627C11.2133 102.108 11.1103 102.535 10.9043 102.908C10.6983 103.279 10.4121 103.555 10.0458 103.736C9.85352 103.832 9.63833 103.9 9.40025 103.942C9.16445 103.981 8.8657 104 8.504 104H7.39486ZM8.27737 103.155H8.4731C8.99276 103.155 9.37964 103.084 9.63375 102.942C9.84665 102.826 10.0149 102.649 10.1385 102.414C10.2622 102.175 10.324 101.913 10.324 101.627C10.324 101.323 10.2587 101.05 10.1282 100.81C9.99774 100.567 9.81918 100.388 9.59254 100.271C9.4529 100.2 9.29723 100.151 9.12554 100.123C8.95613 100.093 8.73178 100.079 8.45249 100.079H8.27737V103.155ZM12.2291 99.2303H13.1597L14.4405 102.857L15.7248 99.2303H16.6554L14.8114 104H14.0868L12.2291 99.2303ZM17.4445 104L19.4327 99.2303H20.1298L22.1283 104H21.1565L20.6448 102.767H18.9485L18.4197 104H17.4445ZM19.2713 101.922H20.2912L19.7795 100.477L19.2713 101.922ZM23.3157 104V99.2303H24.3219L26.2963 102.702V99.2303H27.1788V104H26.1933L24.1982 100.535V104H23.3157ZM28.5448 101.6C28.5448 101.158 28.6547 100.749 28.8745 100.374C29.0943 99.9961 29.3919 99.6973 29.7673 99.4776C30.145 99.2578 30.5548 99.1479 30.9966 99.1479C31.2874 99.1479 31.569 99.196 31.8414 99.2921C32.1138 99.386 32.3599 99.5211 32.5797 99.6973C32.7399 99.8301 32.8693 99.9629 32.9677 100.096C33.0661 100.226 33.1623 100.394 33.2561 100.6H32.2672C32.1046 100.39 31.9249 100.238 31.7281 100.144C31.5312 100.048 31.2942 99.9995 31.0172 99.9995C30.5205 99.9995 30.1244 100.174 29.8291 100.521C29.7078 100.663 29.6116 100.832 29.5407 101.026C29.472 101.219 29.4377 101.412 29.4377 101.607C29.4377 101.897 29.5086 102.167 29.6506 102.417C29.7948 102.667 29.9894 102.865 30.2343 103.011C30.4816 103.158 30.7494 103.231 31.0378 103.231C31.2668 103.231 31.4717 103.188 31.6525 103.104C31.8357 103.017 32.0234 102.873 32.2157 102.671H33.2561C33.0684 103.106 32.7765 103.451 32.3805 103.705C31.9867 103.957 31.5449 104.082 31.055 104.082C30.7116 104.082 30.3843 104.017 30.0729 103.887C29.7639 103.756 29.4972 103.58 29.2728 103.358C29.0508 103.136 28.8734 102.871 28.7406 102.565C28.6101 102.258 28.5448 101.936 28.5448 101.6ZM34.5294 104V99.2303H37.0911V100.079H35.4119V101.201H37.019V102.046H35.4119V103.155H37.0911V104H34.5294ZM38.591 104V99.2303H39.6796C40.4304 99.2303 40.9947 99.3448 41.3725 99.5737C41.7044 99.7729 41.9597 100.052 42.1382 100.412C42.3191 100.769 42.4095 101.174 42.4095 101.627C42.4095 102.108 42.3065 102.535 42.1005 102.908C41.8944 103.279 41.6083 103.555 41.242 103.736C41.0497 103.832 40.8345 103.9 40.5964 103.942C40.3606 103.981 40.0619 104 39.7002 104H38.591ZM39.4735 103.155H39.6693C40.1889 103.155 40.5758 103.084 40.8299 102.942C41.0428 102.826 41.2111 102.649 41.3347 102.414C41.4583 102.175 41.5201 101.913 41.5201 101.627C41.5201 101.323 41.4549 101.05 41.3244 100.81C41.1939 100.567 41.0153 100.388 40.7887 100.271C40.6491 100.2 40.4934 100.151 40.3217 100.123C40.1523 100.093 39.9279 100.079 39.6487 100.079H39.4735V103.155ZM47.0782 102.64H48.0019C48.0386 103.034 48.2537 103.231 48.6475 103.231C48.8375 103.231 48.992 103.177 49.1111 103.069C49.2324 102.962 49.2931 102.822 49.2931 102.65C49.2931 102.449 49.2198 102.288 49.0733 102.166C49 102.111 48.9245 102.067 48.8467 102.032C48.7688 101.998 48.5685 101.92 48.2457 101.799C47.9252 101.678 47.6791 101.507 47.5075 101.287C47.338 101.065 47.2533 100.804 47.2533 100.504C47.2533 100.127 47.3884 99.8061 47.6585 99.5428C47.9287 99.2796 48.256 99.1479 48.6406 99.1479C48.865 99.1479 49.0744 99.1937 49.269 99.2853C49.4659 99.3746 49.6284 99.4993 49.7566 99.6596C49.8528 99.7786 49.9226 99.9045 49.9661 100.037C50.0119 100.168 50.0405 100.323 50.052 100.504H49.1385C49.1248 100.344 49.0744 100.22 48.9875 100.133C48.9005 100.044 48.7826 99.9995 48.6338 99.9995C48.4873 99.9995 48.3682 100.045 48.2766 100.137C48.1874 100.226 48.1427 100.342 48.1427 100.484C48.1427 100.662 48.2309 100.806 48.4071 100.916C48.4598 100.946 48.6361 101.017 48.9359 101.129C49.1695 101.219 49.3389 101.292 49.4442 101.349C49.5518 101.404 49.6513 101.475 49.7429 101.562C50.0268 101.825 50.1687 102.156 50.1687 102.554C50.1687 102.987 50.0222 103.35 49.7292 103.643C49.4384 103.936 49.0779 104.082 48.6475 104.082C48.3934 104.082 48.1553 104.032 47.9333 103.931C47.7112 103.828 47.5292 103.685 47.3873 103.502C47.2911 103.376 47.219 103.248 47.1709 103.117C47.1251 102.987 47.0942 102.828 47.0782 102.64ZM51.4901 104V99.2303H52.3726V101.153H54.0758V99.2303H54.9617V104H54.0758V102.001H52.3726V104H51.4901ZM56.1869 104L58.1752 99.2303H58.8722L60.8708 104H59.899L59.3873 102.767H57.691L57.1622 104H56.1869ZM58.0138 101.922H59.0336L58.522 100.477L58.0138 101.922ZM62.0582 104V99.2303H63.1467C63.8976 99.2303 64.4619 99.3448 64.8396 99.5737C65.1716 99.7729 65.4268 100.052 65.6054 100.412C65.7863 100.769 65.8767 101.174 65.8767 101.627C65.8767 102.108 65.7737 102.535 65.5676 102.908C65.3616 103.279 65.0754 103.555 64.7092 103.736C64.5169 103.832 64.3017 103.9 64.0636 103.942C63.8278 103.981 63.529 104 63.1673 104H62.0582ZM62.9407 103.155H63.1364C63.6561 103.155 64.043 103.084 64.2971 102.942C64.51 102.826 64.6783 102.649 64.8019 102.414C64.9255 102.175 64.9873 101.913 64.9873 101.627C64.9873 101.323 64.9221 101.05 64.7916 100.81C64.6611 100.567 64.4825 100.388 64.2559 100.271C64.1162 100.2 63.9606 100.151 63.7889 100.123C63.6195 100.093 63.3951 100.079 63.1158 100.079H62.9407V103.155ZM67.2804 104V99.2303H68.163V104H67.2804ZM69.7899 104V99.2303H70.7961L72.7705 102.702V99.2303H73.6531V104H72.6675L70.6724 100.535V104H69.7899ZM75.0191 101.607C75.0191 101.158 75.1301 100.746 75.3521 100.37C75.5765 99.9927 75.881 99.6951 76.2656 99.4776C76.6502 99.2578 77.0714 99.1479 77.5292 99.1479C78.0489 99.1479 78.5285 99.2876 78.968 99.5669C79.4076 99.8461 79.7052 100.201 79.8608 100.631H78.8204C78.5182 100.21 78.0821 99.9995 77.5121 99.9995C77.2831 99.9995 77.0668 100.041 76.8631 100.123C76.6616 100.203 76.4922 100.319 76.3548 100.47C76.2198 100.612 76.1122 100.788 76.0321 100.999C75.9519 101.207 75.9119 101.414 75.9119 101.62C75.9119 102.076 76.0698 102.458 76.3857 102.767C76.704 103.076 77.0966 103.231 77.5636 103.231C77.8749 103.231 78.1531 103.158 78.398 103.011C78.6452 102.865 78.833 102.658 78.9612 102.393H76.9867V101.569H80.1046V101.682C80.1046 101.989 80.0451 102.286 79.9261 102.575C79.8093 102.861 79.6411 103.119 79.4213 103.348C78.9451 103.837 78.3431 104.082 77.6151 104.082C77.2557 104.082 76.9146 104.018 76.5918 103.89C76.2713 103.762 75.9954 103.588 75.7642 103.368C75.5353 103.148 75.3533 102.886 75.2182 102.582C75.0854 102.275 75.0191 101.95 75.0191 101.607ZM84.6532 102.64H85.5769C85.6135 103.034 85.8287 103.231 86.2225 103.231C86.4125 103.231 86.567 103.177 86.686 103.069C86.8074 102.962 86.868 102.822 86.868 102.65C86.868 102.449 86.7948 102.288 86.6483 102.166C86.575 102.111 86.4995 102.067 86.4216 102.032C86.3438 101.998 86.1435 101.92 85.8207 101.799C85.5002 101.678 85.2541 101.507 85.0824 101.287C84.913 101.065 84.8283 100.804 84.8283 100.504C84.8283 100.127 84.9634 99.8061 85.2335 99.5428C85.5036 99.2796 85.831 99.1479 86.2156 99.1479C86.4399 99.1479 86.6494 99.1937 86.844 99.2853C87.0409 99.3746 87.2034 99.4993 87.3316 99.6596C87.4277 99.7786 87.4976 99.9045 87.5411 100.037C87.5869 100.168 87.6155 100.323 87.6269 100.504H86.7135C86.6998 100.344 86.6494 100.22 86.5624 100.133C86.4754 100.044 86.3575 99.9995 86.2087 99.9995C86.0622 99.9995 85.9432 100.045 85.8516 100.137C85.7623 100.226 85.7177 100.342 85.7177 100.484C85.7177 100.662 85.8058 100.806 85.9821 100.916C86.0347 100.946 86.211 101.017 86.5109 101.129C86.7444 101.219 86.9138 101.292 87.0191 101.349C87.1267 101.404 87.2263 101.475 87.3179 101.562C87.6017 101.825 87.7437 102.156 87.7437 102.554C87.7437 102.987 87.5972 103.35 87.3041 103.643C87.0134 103.936 86.6528 104.082 86.2225 104.082C85.9683 104.082 85.7303 104.032 85.5082 103.931C85.2861 103.828 85.1042 103.685 84.9622 103.502C84.8661 103.376 84.794 103.248 84.7459 103.117C84.7001 102.987 84.6692 102.828 84.6532 102.64ZM88.8178 101.62C88.8178 101.277 88.883 100.953 89.0135 100.649C89.144 100.342 89.3203 100.08 89.5423 99.8622C89.7667 99.6424 90.0345 99.4684 90.3459 99.3402C90.6572 99.212 90.9869 99.1479 91.3348 99.1479C91.6691 99.1479 91.9873 99.2132 92.2894 99.3437C92.5939 99.4741 92.8549 99.6493 93.0724 99.869C93.2898 100.089 93.4627 100.351 93.5909 100.655C93.7214 100.96 93.7866 101.279 93.7866 101.613C93.7866 101.957 93.7225 102.282 93.5943 102.589C93.4684 102.893 93.2967 103.155 93.0792 103.375C92.8618 103.593 92.6008 103.765 92.2963 103.894C91.9918 104.019 91.6691 104.082 91.328 104.082C90.9846 104.082 90.6572 104.018 90.3459 103.89C90.0368 103.762 89.7701 103.588 89.5458 103.368C89.3237 103.148 89.1463 102.886 89.0135 102.582C88.883 102.277 88.8178 101.957 88.8178 101.62ZM89.7106 101.62C89.7106 102.071 89.8663 102.452 90.1776 102.764C90.4889 103.075 90.8701 103.231 91.3211 103.231C91.7721 103.231 92.1475 103.079 92.4474 102.774C92.7473 102.467 92.8972 102.085 92.8972 101.627C92.8972 101.169 92.745 100.784 92.4405 100.47C92.1361 100.156 91.7629 99.9995 91.3211 99.9995C90.8632 99.9995 90.4798 100.154 90.1707 100.463C89.864 100.772 89.7106 101.158 89.7106 101.62ZM95.187 104V99.2303H96.0695V103.155H97.5289V104H95.187ZM98.7266 102.252V99.2303H99.6091V102.252C99.6091 102.428 99.6171 102.562 99.6331 102.654C99.6492 102.745 99.6801 102.83 99.7259 102.908C99.7877 103.009 99.8724 103.088 99.98 103.145C100.09 103.202 100.209 103.231 100.337 103.231C100.463 103.231 100.58 103.202 100.687 103.145C100.797 103.085 100.883 103.006 100.945 102.908C100.991 102.83 101.022 102.745 101.038 102.654C101.054 102.562 101.062 102.428 101.062 102.252V99.2303H101.944V102.252C101.944 102.531 101.919 102.766 101.869 102.956C101.821 103.146 101.738 103.318 101.621 103.471C101.479 103.661 101.294 103.811 101.065 103.921C100.836 104.029 100.592 104.082 100.334 104.082C100.054 104.082 99.7945 104.019 99.5542 103.894C99.3138 103.768 99.1238 103.595 98.9841 103.375C98.8926 103.229 98.8262 103.068 98.785 102.894C98.7461 102.72 98.7266 102.506 98.7266 102.252ZM103.162 100.079V99.2303H105.813V100.079H104.931V104H104.048V100.079H103.162ZM106.973 104V99.2303H107.856V104H106.973ZM109.236 101.62C109.236 101.277 109.301 100.953 109.431 100.649C109.562 100.342 109.738 100.08 109.96 99.8622C110.185 99.6424 110.452 99.4684 110.764 99.3402C111.075 99.212 111.405 99.1479 111.753 99.1479C112.087 99.1479 112.405 99.2132 112.707 99.3437C113.012 99.4741 113.273 99.6493 113.49 99.869C113.708 100.089 113.881 100.351 114.009 100.655C114.139 100.96 114.205 101.279 114.205 101.613C114.205 101.957 114.14 102.282 114.012 102.589C113.886 102.893 113.715 103.155 113.497 103.375C113.28 103.593 113.019 103.765 112.714 103.894C112.41 104.019 112.087 104.082 111.746 104.082C111.402 104.082 111.075 104.018 110.764 103.89C110.455 103.762 110.188 103.588 109.964 103.368C109.742 103.148 109.564 102.886 109.431 102.582C109.301 102.277 109.236 101.957 109.236 101.62ZM110.128 101.62C110.128 102.071 110.284 102.452 110.595 102.764C110.907 103.075 111.288 103.231 111.739 103.231C112.19 103.231 112.565 103.079 112.865 102.774C113.165 102.467 113.315 102.085 113.315 101.627C113.315 101.169 113.163 100.784 112.858 100.47C112.554 100.156 112.181 99.9995 111.739 99.9995C111.281 99.9995 110.898 100.154 110.589 100.463C110.282 100.772 110.128 101.158 110.128 101.62ZM115.605 104V99.2303H116.611L118.585 102.702V99.2303H119.468V104H118.482L116.487 100.535V104H115.605ZM120.731 102.64H121.655C121.691 103.034 121.906 103.231 122.3 103.231C122.49 103.231 122.645 103.177 122.764 103.069C122.885 102.962 122.946 102.822 122.946 102.65C122.946 102.449 122.873 102.288 122.726 102.166C122.653 102.111 122.577 102.067 122.499 102.032C122.422 101.998 122.221 101.92 121.898 101.799C121.578 101.678 121.332 101.507 121.16 101.287C120.991 101.065 120.906 100.804 120.906 100.504C120.906 100.127 121.041 99.8061 121.311 99.5428C121.581 99.2796 121.909 99.1479 122.293 99.1479C122.518 99.1479 122.727 99.1937 122.922 99.2853C123.119 99.3746 123.281 99.4993 123.409 99.6596C123.506 99.7786 123.575 99.9045 123.619 100.037C123.665 100.168 123.693 100.323 123.705 100.504H122.791C122.778 100.344 122.727 100.22 122.64 100.133C122.553 100.044 122.435 99.9995 122.286 99.9995C122.14 99.9995 122.021 100.045 121.929 100.137C121.84 100.226 121.795 100.342 121.795 100.484C121.795 100.662 121.884 100.806 122.06 100.916C122.113 100.946 122.289 101.017 122.589 101.129C122.822 101.219 122.992 101.292 123.097 101.349C123.204 101.404 123.304 101.475 123.396 101.562C123.68 101.825 123.821 102.156 123.821 102.554C123.821 102.987 123.675 103.35 123.382 103.643C123.091 103.936 122.731 104.082 122.3 104.082C122.046 104.082 121.808 104.032 121.586 103.931C121.364 103.828 121.182 103.685 121.04 103.502C120.944 103.376 120.872 103.248 120.824 103.117C120.778 102.987 120.747 102.828 120.731 102.64Z" fill="#FFFBFA"/>
</svg>
