<svg width="205" height="107" viewBox="0 0 205 107" fill="none" xmlns="http://www.w3.org/2000/svg">
<path opacity="0.2" d="M106.645 1.69532C104.356 -0.565104 100.644 -0.565109 98.3553 1.69531L1.71691 97.1189C-0.572294 99.3793 -0.572306 103.044 1.71689 105.305C4.00609 107.565 7.7176 107.565 10.0068 105.305L102.5 13.9739L112.916 24.2591L39.1292 97.1188C36.84 99.3793 36.84 103.044 39.1292 105.305C41.4184 107.565 45.1299 107.565 47.4191 105.305L121.206 32.4449L194.993 105.305C197.282 107.565 200.994 107.565 203.283 105.305C205.572 103.044 205.572 99.3794 203.283 97.1189L106.645 1.69532Z" fill="#FFFBFA"/>
</svg>
