<svg width="21" height="22" viewBox="0 0 21 22" fill="none" xmlns="http://www.w3.org/2000/svg">
<path d="M10.4997 0.412109C4.74967 0.412109 0.0830078 5.07878 0.0830078 10.8288C0.0830078 16.5788 4.74967 21.2454 10.4997 21.2454H15.708V19.1621H10.4997C5.97884 19.1621 2.16634 15.3496 2.16634 10.8288C2.16634 6.30794 5.97884 2.49544 10.4997 2.49544C15.0205 2.49544 18.833 6.30794 18.833 10.8288V12.3184C18.833 13.1413 18.0934 13.9538 17.2705 13.9538C16.4476 13.9538 15.708 13.1413 15.708 12.3184V10.8288C15.708 7.95378 13.3747 5.62044 10.4997 5.62044C7.62468 5.62044 5.29134 7.95378 5.29134 10.8288C5.29134 13.7038 7.62468 16.0371 10.4997 16.0371C11.9372 16.0371 13.2497 15.4538 14.1872 14.5059C14.8643 15.4329 16.0309 16.0371 17.2705 16.0371C19.3226 16.0371 20.9163 14.3704 20.9163 12.3184V10.8288C20.9163 5.07878 16.2497 0.412109 10.4997 0.412109ZM10.4997 13.9538C8.77051 13.9538 7.37468 12.5579 7.37468 10.8288C7.37468 9.09961 8.77051 7.70378 10.4997 7.70378C12.2288 7.70378 13.6247 9.09961 13.6247 10.8288C13.6247 12.5579 12.2288 13.9538 10.4997 13.9538Z" fill="#D73A01"/>
</svg>
