<svg width="21" height="21" viewBox="0 0 21 21" fill="none" xmlns="http://www.w3.org/2000/svg">
<path d="M10.4997 0.109375C4.74967 0.109375 0.0830078 4.77604 0.0830078 10.526C0.0830078 16.276 4.74967 20.9427 10.4997 20.9427H15.708V18.8594H10.4997C5.97884 18.8594 2.16634 15.0469 2.16634 10.526C2.16634 6.00521 5.97884 2.19271 10.4997 2.19271C15.0205 2.19271 18.833 6.00521 18.833 10.526V12.0156C18.833 12.8385 18.0934 13.651 17.2705 13.651C16.4476 13.651 15.708 12.8385 15.708 12.0156V10.526C15.708 7.65104 13.3747 5.31771 10.4997 5.31771C7.62468 5.31771 5.29134 7.65104 5.29134 10.526C5.29134 13.401 7.62468 15.7344 10.4997 15.7344C11.9372 15.7344 13.2497 15.151 14.1872 14.2031C14.8643 15.1302 16.0309 15.7344 17.2705 15.7344C19.3226 15.7344 20.9163 14.0677 20.9163 12.0156V10.526C20.9163 4.77604 16.2497 0.109375 10.4997 0.109375ZM10.4997 13.651C8.77051 13.651 7.37468 12.2552 7.37468 10.526C7.37468 8.79688 8.77051 7.40104 10.4997 7.40104C12.2288 7.40104 13.6247 8.79688 13.6247 10.526C13.6247 12.2552 12.2288 13.651 10.4997 13.651Z" fill="#A32C00"/>
</svg>
