<svg width="21" height="21" viewBox="0 0 21 21" fill="none" xmlns="http://www.w3.org/2000/svg">
<path d="M2.33333 0C1.0465 0 0 1.0465 0 2.33333V18.6667C0 19.9535 1.0465 21 2.33333 21H10.0579H13.3164H18.6667C19.9535 21 21 19.9535 21 18.6667V2.33333C21 1.0465 19.9535 0 18.6667 0H2.33333ZM2.33333 2.33333H18.6667L18.6689 18.6667H13.3164V14.041H16.0758L16.486 10.8623H13.3346V8.83659C13.3346 7.91725 13.5908 7.29622 14.9092 7.29622H16.5749V4.45931C15.764 4.37648 14.9499 4.33621 14.1344 4.33854C11.7148 4.33854 10.0579 5.81536 10.0579 8.52669V10.8669H7.32357V14.0456H10.0579V18.6667H2.33333V2.33333Z" fill="#A32C00"/>
</svg>
