<svg width="22" height="21" viewBox="0 0 22 21" fill="none" xmlns="http://www.w3.org/2000/svg">
<path d="M2.73144 0.0449219C1.45502 0.0449219 0.416992 1.08295 0.416992 2.35937V18.5605C0.416992 19.8369 1.45502 20.8749 2.73144 20.8749H10.3935H13.6256H18.9325C20.209 20.8749 21.247 19.8369 21.247 18.5605V2.35937C21.247 1.08295 20.209 0.0449219 18.9325 0.0449219H2.73144ZM2.73144 2.35937H18.9325L18.9348 18.5605H13.6256V13.9723H16.3627L16.7695 10.8193H13.6437V8.80998C13.6437 7.89809 13.8978 7.28208 15.2055 7.28208H16.8577V4.46813C16.0534 4.38597 15.2459 4.34603 14.437 4.34834C12.0369 4.34834 10.3935 5.8132 10.3935 8.50259V10.8238H7.68127V13.9768H10.3935V18.5605H2.73144V2.35937Z" fill="#FFFBFA"/>
</svg>
