<svg width="22" height="21" viewBox="0 0 22 21" fill="none" xmlns="http://www.w3.org/2000/svg">
<path d="M6.45833 0C3.24183 0 0.625 2.61683 0.625 5.83333V15.1667C0.625 18.3832 3.24183 21 6.45833 21H15.7917C19.0082 21 21.625 18.3832 21.625 15.1667V5.83333C21.625 2.61683 19.0082 0 15.7917 0H6.45833ZM6.45833 2.33333H15.7917C17.7213 2.33333 19.2917 3.90367 19.2917 5.83333V15.1667C19.2917 17.0963 17.7213 18.6667 15.7917 18.6667H6.45833C4.52867 18.6667 2.95833 17.0963 2.95833 15.1667V5.83333C2.95833 3.90367 4.52867 2.33333 6.45833 2.33333ZM16.9583 3.5C16.6489 3.5 16.3522 3.62292 16.1334 3.84171C15.9146 4.0605 15.7917 4.35725 15.7917 4.66667C15.7917 4.97609 15.9146 5.27283 16.1334 5.49162C16.3522 5.71042 16.6489 5.83333 16.9583 5.83333C17.2678 5.83333 17.5645 5.71042 17.7833 5.49162C18.0021 5.27283 18.125 4.97609 18.125 4.66667C18.125 4.35725 18.0021 4.0605 17.7833 3.84171C17.5645 3.62292 17.2678 3.5 16.9583 3.5ZM11.125 4.66667C7.9085 4.66667 5.29167 7.2835 5.29167 10.5C5.29167 13.7165 7.9085 16.3333 11.125 16.3333C14.3415 16.3333 16.9583 13.7165 16.9583 10.5C16.9583 7.2835 14.3415 4.66667 11.125 4.66667ZM11.125 7C13.0547 7 14.625 8.57033 14.625 10.5C14.625 12.4297 13.0547 14 11.125 14C9.19533 14 7.625 12.4297 7.625 10.5C7.625 8.57033 9.19533 7 11.125 7Z" fill="#A32C00"/>
</svg>
