<svg width="19" height="19" viewBox="0 0 19 19" fill="none" xmlns="http://www.w3.org/2000/svg">
<path d="M5.25033 0.0410156C2.37845 0.0410156 0.0419922 2.37747 0.0419922 5.24935V13.5827C0.0419922 16.4546 2.37845 18.791 5.25033 18.791H13.5837C16.4555 18.791 18.792 16.4546 18.792 13.5827V5.24935C18.792 2.37747 16.4555 0.0410156 13.5837 0.0410156H5.25033ZM5.25033 2.12435H13.5837C15.3066 2.12435 16.7087 3.52643 16.7087 5.24935V13.5827C16.7087 15.3056 15.3066 16.7077 13.5837 16.7077H5.25033C3.52741 16.7077 2.12533 15.3056 2.12533 13.5827V5.24935C2.12533 3.52643 3.52741 2.12435 5.25033 2.12435ZM14.6253 3.16602C14.3491 3.16602 14.0841 3.27576 13.8888 3.47111C13.6934 3.66646 13.5837 3.93141 13.5837 4.20768C13.5837 4.48395 13.6934 4.7489 13.8888 4.94425C14.0841 5.1396 14.3491 5.24935 14.6253 5.24935C14.9016 5.24935 15.1665 5.1396 15.3619 4.94425C15.5572 4.7489 15.667 4.48395 15.667 4.20768C15.667 3.93141 15.5572 3.66646 15.3619 3.47111C15.1665 3.27576 14.9016 3.16602 14.6253 3.16602ZM9.41699 4.20768C6.54512 4.20768 4.20866 6.54414 4.20866 9.41602C4.20866 12.2879 6.54512 14.6243 9.41699 14.6243C12.2889 14.6243 14.6253 12.2879 14.6253 9.41602C14.6253 6.54414 12.2889 4.20768 9.41699 4.20768ZM9.41699 6.29102C11.1399 6.29102 12.542 7.6931 12.542 9.41602C12.542 11.1389 11.1399 12.541 9.41699 12.541C7.69408 12.541 6.29199 11.1389 6.29199 9.41602C6.29199 7.6931 7.69408 6.29102 9.41699 6.29102Z" fill="#D73A01"/>
</svg>
