<svg width="14" height="24" viewBox="0 0 14 24" fill="none" xmlns="http://www.w3.org/2000/svg">
<path d="M11.1455 0.921875H2.81217C1.37467 0.921875 0.208008 2.08854 0.208008 3.52604V21.2344C0.208008 22.6719 1.37467 23.8385 2.81217 23.8385H11.1455C12.583 23.8385 13.7497 22.6719 13.7497 21.2344V3.52604C13.7497 2.08854 12.583 0.921875 11.1455 0.921875ZM6.97884 22.7969C6.11426 22.7969 5.41634 22.099 5.41634 21.2344C5.41634 20.3698 6.11426 19.6719 6.97884 19.6719C7.84343 19.6719 8.54134 20.3698 8.54134 21.2344C8.54134 22.099 7.84343 22.7969 6.97884 22.7969ZM11.6663 18.6302H2.29134V4.04687H11.6663V18.6302Z" fill="#D73A01"/>
</svg>
