<svg width="14" height="24" viewBox="0 0 14 24" fill="none" xmlns="http://www.w3.org/2000/svg">
<path d="M11.1455 0.619141H2.81217C1.37467 0.619141 0.208008 1.78581 0.208008 3.22331V20.9316C0.208008 22.3691 1.37467 23.5358 2.81217 23.5358H11.1455C12.583 23.5358 13.7497 22.3691 13.7497 20.9316V3.22331C13.7497 1.78581 12.583 0.619141 11.1455 0.619141ZM6.97884 22.4941C6.11426 22.4941 5.41634 21.7962 5.41634 20.9316C5.41634 20.0671 6.11426 19.3691 6.97884 19.3691C7.84343 19.3691 8.54134 20.0671 8.54134 20.9316C8.54134 21.7962 7.84343 22.4941 6.97884 22.4941ZM11.6663 18.3275H2.29134V3.74414H11.6663V18.3275Z" fill="#A32C00"/>
</svg>
