<svg width="22" height="21" viewBox="0 0 22 21" fill="none" xmlns="http://www.w3.org/2000/svg">
<path d="M11.0963 0C5.31447 0 0.607669 4.70229 0.605569 10.4836C0.604519 12.3316 1.0886 14.1357 2.00639 15.7254L0.583008 21L6.07759 19.7019C7.60969 20.5377 9.33441 20.9764 11.0902 20.9774H11.0943C16.8751 20.9774 21.5799 16.2741 21.583 10.4938C21.5851 7.6914 20.4952 5.05652 18.5147 3.07412C16.5342 1.09277 13.9022 0.00105 11.0963 0ZM11.0943 2.1C13.3373 2.10105 15.4452 2.97549 17.0298 4.55889C18.6144 6.14439 19.4849 8.2511 19.4828 10.4918C19.4807 15.116 15.719 18.8774 11.0922 18.8774C9.69245 18.8764 8.30589 18.525 7.08462 17.8582L6.37703 17.4727L5.59561 17.6572L3.52822 18.1453L4.03276 16.2709L4.26042 15.4301L3.82561 14.6754C3.09264 13.407 2.70472 11.9567 2.70577 10.4836C2.70787 5.86149 6.47069 2.1 11.0943 2.1ZM7.38406 5.64375C7.20869 5.64375 6.92515 5.70937 6.68468 5.97187C6.4442 6.23332 5.76584 6.86656 5.76584 8.15596C5.76584 9.44536 6.70519 10.6917 6.83645 10.8671C6.96666 11.0414 8.64963 13.771 11.3137 14.821C13.5274 15.6935 13.9769 15.5213 14.4579 15.4772C14.9388 15.4342 16.0095 14.8446 16.2279 14.2324C16.4463 13.6203 16.4468 13.0937 16.3817 12.9855C16.3166 12.8763 16.1418 12.8112 15.8792 12.68C15.6177 12.5487 14.3292 11.9161 14.0887 11.8289C13.8482 11.7418 13.6724 11.6977 13.498 11.9602C13.3237 12.2227 12.8228 12.8112 12.6694 12.9855C12.5161 13.1609 12.3638 13.1845 12.1013 13.0532C11.8388 12.9209 10.9947 12.6435 9.99291 11.751C9.21373 11.0569 8.68798 10.2006 8.53466 9.93809C8.3824 9.67664 8.5203 9.53303 8.65157 9.40283C8.76918 9.28523 8.91204 9.09676 9.04331 8.94346C9.17352 8.79016 9.21867 8.68094 9.30583 8.50664C9.39299 8.33234 9.34838 8.17852 9.28327 8.04727C9.21816 7.91602 8.70831 6.62182 8.47518 6.10312C8.27881 5.66737 8.07142 5.65725 7.8845 5.6499C7.73224 5.6436 7.55838 5.64375 7.38406 5.64375Z" fill="#A32C00"/>
</svg>
