<svg width="21" height="21" viewBox="0 0 21 21" fill="none" xmlns="http://www.w3.org/2000/svg">
<path d="M10.4289 0C4.69346 0 0.0244629 4.66497 0.0223796 10.4004C0.0213379 12.2337 0.50153 14.0235 1.41195 15.6006L0 20.8333L5.45044 19.5455C6.97023 20.3747 8.6811 20.8099 10.4228 20.811H10.4268C16.1612 20.811 20.8282 16.1449 20.8313 10.4106C20.8334 7.63035 19.7523 5.01639 17.7877 3.04972C15.8231 1.0841 13.2122 0.00104167 10.4289 0ZM10.4268 2.08333C12.6518 2.08438 14.7428 2.95187 16.3147 4.52271C17.8866 6.09562 18.75 8.18561 18.748 10.4085C18.7459 14.996 15.0144 18.7276 10.4248 18.7276C9.03626 18.7266 7.66084 18.3779 6.44938 17.7165L5.74748 17.334L4.97233 17.5171L2.92155 18.0013L3.42204 16.1418L3.64787 15.3076L3.21655 14.5589C2.48947 13.3006 2.10467 11.8618 2.10571 10.4004C2.1078 5.81497 5.84038 2.08333 10.4268 2.08333ZM6.74642 5.59896C6.57246 5.59896 6.29119 5.66406 6.05265 5.92448C5.81411 6.18385 5.14119 6.81206 5.14119 8.09123C5.14119 9.37039 6.073 10.6069 6.20321 10.7808C6.33237 10.9538 8.00182 13.6617 10.6445 14.7034C12.8404 15.569 13.2863 15.3982 13.7634 15.3544C14.2405 15.3117 15.3025 14.7268 15.5192 14.1195C15.7359 13.5122 15.7364 12.9898 15.6718 12.8825C15.6072 12.7742 15.4338 12.7096 15.1733 12.5793C14.914 12.4491 13.6358 11.8215 13.3972 11.735C13.1587 11.6486 12.9842 11.6048 12.8113 11.8652C12.6384 12.1257 12.1414 12.7096 11.9893 12.8825C11.8373 13.0564 11.6862 13.0798 11.4258 12.9496C11.1654 12.8184 10.3281 12.5431 9.33431 11.6577C8.56139 10.9692 8.03986 10.1196 7.88778 9.85921C7.73673 9.59984 7.87353 9.45737 8.00374 9.32821C8.12041 9.21154 8.26212 9.02456 8.39233 8.87248C8.5215 8.72039 8.56629 8.61204 8.65275 8.43913C8.73921 8.26621 8.69495 8.11361 8.63037 7.9834C8.56579 7.85319 8.06003 6.56927 7.82878 6.05469C7.63398 5.6224 7.42825 5.61235 7.24284 5.60506C7.0918 5.59881 6.91934 5.59896 6.74642 5.59896Z" fill="#FFFBFA"/>
</svg>
